<?xml version="1.0" encoding="utf-8"?>
<!-- Generator: Adobe Illustrator 25.0.1, SVG Export Plug-In . SVG Version: 6.00 Build 0)  -->
<svg version="1.1" id="레이어_1" xmlns="http://www.w3.org/2000/svg" xmlns:xlink="http://www.w3.org/1999/xlink" x="0px"
	 y="0px" viewBox="0 0 1920 568" style="enable-background:new 0 0 1920 568;" xml:space="preserve">
<style type="text/css">
	.st0{fill:#80B334;}
</style>
<path id="교차_1" class="st0" d="M0,568V33.3c4.5,2.1,8.7,4.8,12.5,7.9C37,1.5,89-10.9,128.8,13.6C140.9,21,151,31.4,158,43.8
	c21.3-9.4,46.1-4.9,62.8,11.4c37.8-27.5,90.6-19.1,118.1,18.6c1.1,1.5,2.2,3.1,3.2,4.7c13.6-3.2,28-1.2,40.3,5.5
	c38.1-40.7,102.1-42.8,142.8-4.7c2,1.8,3.9,3.8,5.7,5.7c23.5-19.4,58.2-16.9,78.6,5.8c39.3-39.6,103.3-39.8,142.8-0.5
	c2,2,3.9,4.1,5.8,6.2c19.6-13.9,45.8-14.1,65.5-0.4C860,53.8,923.8,49,966,85.4c3.4,2.9,6.6,6.1,9.6,9.5c20.7-22,55.1-24,78.2-4.5
	c39.5-39.4,103.5-39.2,142.8,0.3c0.2,0.2,0.4,0.4,0.6,0.6c20.8-23.6,56.8-26,80.5-5.2c3.6,3.2,6.9,6.9,9.6,10.9
	c26.7-38.3,79.4-47.6,117.7-20.8c8,5.6,15,12.5,20.6,20.5c20.6-30.1,61.7-37.8,91.8-17.2c7.2,4.9,13.4,11.3,18.1,18.6
	c17.9-43.1,67.3-63.6,110.5-45.7c13.2,5.5,24.8,14.2,33.7,25.4c13-18.2,35.5-27.1,57.4-22.8c25.4-49.7,86.2-69.4,135.9-44
	c10.2,5.2,19.5,12.1,27.3,20.4c6.3-2.3,13-3.5,19.7-3.5v540L0,568L0,568z"/>
</svg>
