<?xml version="1.0" encoding="utf-8"?>
<!-- Generator: Adobe Illustrator 25.0.1, SVG Export Plug-In . SVG Version: 6.00 Build 0)  -->
<svg version="1.1" id="레이어_1" xmlns="http://www.w3.org/2000/svg" xmlns:xlink="http://www.w3.org/1999/xlink" x="0px"
	 y="0px" viewBox="0 0 412 347" style="enable-background:new 0 0 412 347;" xml:space="preserve">
<style type="text/css">
	.st0{fill:#80B334;}
</style>
<path class="st0" d="M407.8,6.5c-1.7-1.7-3.7-3.2-5.9-4.2c-10.7-5.2-23.7-1.2-29.2,9.1c-4.7-0.9-9.5,1-12.3,4.7
	c-1.9-2.3-4.4-4.1-7.2-5.3c-9.3-3.7-19.9,0.5-23.7,9.4c-1-1.5-2.3-2.8-3.9-3.8c-6.5-4.3-15.3-2.7-19.7,3.6c-1.2-1.6-2.7-3.1-4.4-4.2
	c-8.2-5.5-19.5-3.6-25.3,4.3c-0.6-0.8-1.3-1.6-2.1-2.3c-5.1-4.3-12.8-3.8-17.3,1.1c0,0-0.1-0.1-0.1-0.1c-8.4-8.2-22.2-8.2-30.7-0.1
	c-5-4-12.3-3.6-16.8,0.9c-0.6-0.7-1.3-1.4-2.1-2c-9.1-7.5-22.8-6.5-30.6,2.2c-4.2-2.8-9.9-2.8-14.1,0.1c-0.4-0.4-0.8-0.9-1.2-1.3
	c-8.5-8.1-22.2-8.1-30.6,0.1c-4.4-4.7-11.8-5.2-16.9-1.2c-0.4-0.4-0.8-0.8-1.2-1.2c-8.7-7.9-22.5-7.5-30.6,1
	c-2.6-1.4-5.7-1.8-8.6-1.1c-0.2-0.3-0.4-0.7-0.7-1c-5.9-7.8-17.2-9.5-25.3-3.9c-3.6-3.4-8.9-4.3-13.5-2.3c-1.5-2.6-3.7-4.7-6.3-6.3
	c-8.5-5.1-19.7-2.5-25,5.7C1.9,7.9,1,7.3,0,6.9v102v8.6V347h412V117.5v-8.6V5.8C410.6,5.8,409.1,6,407.8,6.5z"/>
</svg>
