<?xml version="1.0" encoding="utf-8"?>
<!-- Generator: Adobe Illustrator 25.0.1, SVG Export Plug-In . SVG Version: 6.00 Build 0)  -->
<svg version="1.1" id="레이어_1" xmlns="http://www.w3.org/2000/svg" xmlns:xlink="http://www.w3.org/1999/xlink" x="0px"
	 y="0px" viewBox="0 0 1027 927" style="enable-background:new 0 0 1027 927;" xml:space="preserve">
<style type="text/css">
	.st0{fill:#29BCC7;}
	.st1{fill:none;}
	.st2{fill:#08183B;}
</style>
<g>
	<path id="패스_41" class="st0" d="M538.4,0C368.8,0,265.6,105.2,174.5,233.5C116.1,315.8,35,394.9,35,503.4
		c0,125.4,63.6,218.1,139.5,285.9C266.8,871.9,385.8,916,538.4,916c222.7,0,356-53.4,422.3-230.4c16.6-44.3,63.4-186.6,63.4-241.9
		C1024,165.8,816.4,0,538.4,0z"/>
	<g id="패스_40" transform="translate(-17.784 11)">
		<path class="st1" d="M524.2,0C354.6,0,251.4,105.2,160.3,233.5C101.9,315.8,20.8,394.9,20.8,503.4c0,125.4,63.6,218.1,139.5,285.9
			C252.6,871.9,371.5,916,524.2,916c222.7,0,356-53.4,422.3-230.4c16.6-44.3,63.4-186.6,63.4-241.9C1009.8,165.8,802.2,0,524.2,0z"
			/>
		<path class="st2" d="M524.2,2c-10.4,0-20.8,0.4-30.9,1.2c-9.9,0.8-19.8,2-29.4,3.5c-9.4,1.5-18.8,3.5-28,5.7
			c-9,2.2-18,4.9-26.7,7.8c-8.6,2.9-17.1,6.2-25.5,9.8c-8.2,3.5-16.3,7.5-24.3,11.7c-7.8,4.1-15.6,8.6-23.2,13.4
			c-7.4,4.7-14.9,9.7-22.3,15c-14,10.2-28.1,21.8-41.9,34.5c-12.9,11.9-26,25.2-38.9,39.5c-12.1,13.4-24,27.7-36.5,43.7
			c-11.2,14.3-22.6,29.6-34.8,46.8c-11.4,16.1-23.9,32.4-36,48.1c-12.6,16.3-25.5,33.2-37.6,50.3c-6.5,9.2-12.2,17.6-17.4,25.9
			c-5.9,9.2-11,17.9-15.6,26.6c-5,9.3-9.5,18.6-13.2,27.5c-4,9.6-7.5,19.3-10.2,28.7c-2.9,10-5.1,20.1-6.6,30
			c-1.5,10.4-2.3,21.1-2.3,31.6c0,15.2,1,30.5,2.9,45.2c1.8,14.3,4.6,28.5,8.2,42.3c3.5,13.3,7.8,26.5,12.9,39.4
			c4.9,12.4,10.6,24.7,17.1,36.7c6.1,11.5,13.1,22.9,20.6,34c7.2,10.6,15.1,21.2,23.6,31.4c8,9.7,16.7,19.5,25.9,28.9
			c8.7,8.9,18,17.9,27.7,26.5c11.5,10.3,23.5,20,35.7,29c12.3,9.1,25.2,17.6,38.3,25.4c13.2,7.8,27,15.1,41,21.7
			c14.1,6.6,28.8,12.6,43.7,17.9c15,5.3,30.7,10,46.5,14c16,4,32.6,7.4,49.4,10.1c16.9,2.7,34.6,4.8,52.4,6.1
			c18,1.4,36.6,2.1,55.5,2.1c58.1,0,107.2-3.6,150.3-11.1c11.2-1.9,22.1-4.2,32.5-6.7c10.5-2.5,20.8-5.3,30.6-8.4
			c9.9-3.1,19.5-6.6,28.7-10.3c9.2-3.7,18.3-7.8,26.8-12.2c8.6-4.4,17-9.2,25-14.3c8-5.1,15.8-10.6,23.2-16.4
			c7.4-5.8,14.6-12.1,21.4-18.7c6.8-6.6,13.5-13.7,19.7-21c6.3-7.4,12.3-15.3,18-23.5c5.7-8.2,11.2-17,16.4-26.1
			c5.2-9.1,10.1-18.8,14.7-28.8c4.6-10,9.1-20.7,13.2-31.6c9.1-24.2,24.8-71,37.8-116.7c7.6-26.5,13.6-50.1,17.9-70
			c5-23.4,7.5-41.8,7.5-54.5c0-67.5-12.3-130.1-36.6-185.8c-5.9-13.5-12.5-26.7-19.8-39.3c-7.2-12.5-15.1-24.7-23.6-36.3
			c-8.4-11.5-17.6-22.7-27.2-33.2c-9.6-10.5-19.9-20.6-30.7-30c-10.7-9.4-22.1-18.4-33.9-26.8c-11.8-8.3-24.2-16.2-37-23.5
			c-12.7-7.2-26.1-14-39.8-20.1c-13.7-6.1-28-11.7-42.5-16.6c-14.5-4.9-29.7-9.3-44.9-13.1c-15.3-3.7-31.2-6.9-47.2-9.4
			c-16.1-2.5-32.6-4.4-49.3-5.7C558.6,2.6,541.4,2,524.2,2 M524.2,0c278,0,485.6,165.8,485.6,443.8c0,55.3-46.8,197.6-63.4,241.9
			C880.2,862.6,746.9,916,524.2,916c-152.6,0-271.6-44.1-363.9-126.7C84.4,721.4,20.8,628.7,20.8,503.4
			c0-108.4,81.1-187.5,139.5-269.8C251.4,105.2,354.6,0,524.2,0z"/>
	</g>
</g>
</svg>
