<?xml version="1.0" encoding="utf-8"?>
<!-- Generator: Adobe Illustrator 16.0.0, SVG Export Plug-In . SVG Version: 6.00 Build 0)  -->
<!DOCTYPE svg PUBLIC "-//W3C//DTD SVG 1.1//EN" "http://www.w3.org/Graphics/SVG/1.1/DTD/svg11.dtd">
<svg version="1.1" id="Layer_1" xmlns="http://www.w3.org/2000/svg" xmlns:xlink="http://www.w3.org/1999/xlink" x="0px" y="0px"
	 width="168px" height="168px" viewBox="0 0 168 168" enable-background="new 0 0 168 168" xml:space="preserve">
<pattern  width="180" height="180" patternUnits="userSpaceOnUse" id="New_Pattern_Swatch_2" viewBox="0 -180 180 180" overflow="visible">
	<g>
		<polygon fill="none" points="0,0 180,0 180,-180 0,-180 		"/>
		<path fill="#EF7E8B" d="M30-165c0,8.285-6.715,15-15,15s-15-6.715-15-15s6.715-15,15-15S30-173.285,30-165z"/>
		<path fill="#EF7E8B" d="M80-165c0,8.285-6.715,15-15,15s-15-6.715-15-15s6.715-15,15-15S80-173.285,80-165z"/>
		<path fill="#EF7E8B" d="M130-165c0,8.285-6.715,15-15,15s-15-6.715-15-15s6.715-15,15-15S130-173.285,130-165z"/>
		<path fill="#EF7E8B" d="M180-165c0,8.285-6.715,15-15,15s-15-6.715-15-15s6.715-15,15-15S180-173.285,180-165z"/>
		<path fill="#EF7E8B" d="M30-115c0,8.285-6.715,15-15,15s-15-6.715-15-15s6.715-15,15-15S30-123.285,30-115z"/>
		<path fill="#EF7E8B" d="M80-115c0,8.285-6.715,15-15,15s-15-6.715-15-15s6.715-15,15-15S80-123.285,80-115z"/>
		<path fill="#EF7E8B" d="M130-115c0,8.285-6.715,15-15,15s-15-6.715-15-15s6.715-15,15-15S130-123.285,130-115z"/>
		<path fill="#EF7E8B" d="M180-115c0,8.285-6.715,15-15,15s-15-6.715-15-15s6.715-15,15-15S180-123.285,180-115z"/>
		<path fill="#EF7E8B" d="M30-65c0,8.285-6.715,15-15,15S0-56.715,0-65s6.715-15,15-15S30-73.285,30-65z"/>
		<path fill="#EF7E8B" d="M80-65c0,8.285-6.715,15-15,15s-15-6.715-15-15s6.715-15,15-15S80-73.285,80-65z"/>
		<path fill="#EF7E8B" d="M130-65c0,8.285-6.715,15-15,15s-15-6.715-15-15s6.715-15,15-15S130-73.285,130-65z"/>
		<path fill="#EF7E8B" d="M180-65c0,8.285-6.715,15-15,15s-15-6.715-15-15s6.715-15,15-15S180-73.285,180-65z"/>
		<path fill="#EF7E8B" d="M30-15c0,8.285-6.715,15-15,15S0-6.715,0-15s6.715-15,15-15S30-23.285,30-15z"/>
		<path fill="#EF7E8B" d="M80-15c0,8.285-6.715,15-15,15S50-6.715,50-15s6.715-15,15-15S80-23.285,80-15z"/>
		<path fill="#EF7E8B" d="M130-15c0,8.285-6.715,15-15,15s-15-6.715-15-15s6.715-15,15-15S130-23.285,130-15z"/>
		<path fill="#EF7E8B" d="M180-15c0,8.285-6.715,15-15,15s-15-6.715-15-15s6.715-15,15-15S180-23.285,180-15z"/>
	</g>
</pattern>
<circle fill="url(#New_Pattern_Swatch_2)" cx="84" cy="84" r="84"/>
</svg>
