<?xml version="1.0" encoding="utf-8"?>
<!-- Generator: Adobe Illustrator 25.0.1, SVG Export Plug-In . SVG Version: 6.00 Build 0)  -->
<svg version="1.1" id="레이어_1" xmlns="http://www.w3.org/2000/svg" xmlns:xlink="http://www.w3.org/1999/xlink" x="0px"
	 y="0px" viewBox="0 0 541 240" style="enable-background:new 0 0 541 240;" xml:space="preserve">
<style type="text/css">
	.st0{fill:#D67D2D;}
	.st1{fill:#996644;}
	.st2{fill:#FFEEDC;}
	.st3{fill:#FFA124;stroke:#E2881B;stroke-width:6;stroke-miterlimit:10;}
	.st4{fill:#D67D2D;stroke:#BA6125;stroke-width:8;stroke-miterlimit:10;}
	.st5{opacity:0.52;fill:#BC662B;enable-background:new    ;}
	.st6{clip-path:url(#SVGID_2_);}
	.st7{fill:none;stroke:#A05000;stroke-width:5;stroke-miterlimit:10;}
	.st8{opacity:0.9;fill:#FFE3C5;enable-background:new    ;}
</style>
<g id="그룹_165" transform="translate(-690.494 -5614)">
	<path id="사각형_98" class="st0" d="M822.31,5614.92h14c2.76,0,5,2.24,5,5v48c0,2.76-2.24,5-5,5h-14c-2.76,0-5-2.24-5-5v-48
		C817.31,5617.15,819.55,5614.92,822.31,5614.92z"/>
	<path id="사각형_99" class="st0" d="M1085.31,5614.92h14c2.76,0,5,2.24,5,5v48c0,2.76-2.24,5-5,5h-14c-2.76,0-5-2.24-5-5v-48
		C1080.31,5617.15,1082.55,5614.92,1085.31,5614.92z"/>
	<g id="그룹_154" transform="translate(-1914.5 1517)">
		<circle id="타원_86" class="st1" cx="2680.25" cy="4259.55" r="13.61"/>
		<circle id="타원_87" class="st2" cx="2680.25" cy="4251.61" r="13.61"/>
		<path id="패스_59" class="st3" d="M2883.7,4152c71.99,1.64,143.98,3.15,215.96,4.97c31.66,0.8,43.37,21.41,42.05,49.4
			c-1.4,29.54-5.72,58.89-8.76,88.32c-1.33,12.87-8.44,18.25-19.14,23.54c-29.86,14.8-60.91,15.25-92.5,14.98
			c-87.08-0.73-174.17-0.11-261.23-1.79c-38.89-0.75-77.71-5.71-116.56-8.82c-12.63-1.01-23.26-8.31-24.93-21.45
			c-4.82-37.81-7.98-75.95-10.25-114.01c-0.89-14.96,17.65-29.48,32.6-29.9c41.37-1.15,82.73-3.04,124.12-3.65
			c39.53-0.58,79.08-0.12,118.62-0.12L2883.7,4152z"/>
		<path id="패스_60" class="st4" d="M2883.27,4164.65c68.42,1.41,136.84,2.71,205.25,4.28c30.09,0.69,41.9,12.63,39.96,42.5
			c-1.65,25.4-5.44,50.67-8.33,75.99c-1.27,11.07-8.02,15.7-18.19,20.26c-28.38,12.73-57.89,13.12-87.92,12.89
			c-82.76-0.63-165.53-0.09-248.27-1.54c-36.96-0.65-73.86-4.91-110.78-7.59c-12-0.87-22.1-7.15-23.7-18.46
			c-4.58-32.53-8.51-65.31-9.74-98.1c-0.56-15.07,13.04-24.93,30.98-25.72c39.29-1.74,78.63-2.62,117.96-3.14
			c37.57-0.5,75.15-0.11,112.73-0.11L2883.27,4164.65z"/>
		<path id="패스_61" class="st5" d="M2658.22,4313.51c36.38,1.85,72.74,4.8,109.16,5.25c81.53,1,163.1,0.63,244.64,1.06
			c29.59,0.16,58.67-0.11,86.63-8.91c10.02-3.15,16.67-6.35,17.92-14c2.04-12.54,4.52-25.05,6.37-37.6
			c-4.46-9.89-16.43-14.18-37.54-14.52c-67.41-1.08-134.83-2.07-202.25-2.96l-0.02,0.87c-37.03,0-74.06-0.27-111.09,0.07
			c-38.75,0.36-77.52,0.97-116.23,2.17c-13.28,0.41-24.14,4.36-28.5,10.71c1.84,15.07,4.56,30.12,7.56,45.09
			C2636.44,4308.56,2646.4,4312.91,2658.22,4313.51z"/>
		<circle id="타원_88" class="st1" cx="3088.44" cy="4248.96" r="13.61"/>
		<circle id="타원_89" class="st2" cx="3088.44" cy="4241.03" r="13.61"/>
		<g>
			<defs>
				<path id="SVGID_1_" d="M2883.5,4164.57c67.05,1.41,134.1,2.71,201.15,4.28c29.49,0.69,43.06,18.38,39.16,42.5
					c-4.06,25.13-5.33,50.67-8.16,75.99c-1.24,11.07-7.86,15.7-17.82,20.26c-27.81,12.73-56.73,13.12-86.16,12.89
					c-81.1-0.63-162.22-0.09-243.3-1.54c-36.22-0.65-72.38-4.91-108.56-7.59c-11.76-0.87-21.66-7.15-23.22-18.46
					c-4.49-32.53-8.34-65.31-9.54-98.1c-0.55-15.07,12.78-24.93,30.37-25.72c38.5-1.74,77.06-2.62,115.6-3.14
					c36.82-0.5,73.65-0.11,110.48-0.11L2883.5,4164.57z"/>
			</defs>
			<clipPath id="SVGID_2_">
				<use xlink:href="#SVGID_1_"  style="overflow:visible;"/>
			</clipPath>
			<g id="그룹_153" transform="translate(2626.707 4163.659)" class="st6">
				<line id="선_52" class="st7" x1="520.08" y1="-2.42" x2="385.6" y2="-5.11"/>
				<line id="선_53" class="st7" x1="52.15" y1="102.06" x2="-8.53" y2="100.18"/>
				<line id="선_54" class="st7" x1="83.88" y1="116.98" x2="-13.16" y2="113.98"/>
				<line id="선_55" class="st7" x1="522" y1="18.06" x2="442.49" y2="18.06"/>
				<line id="선_56" class="st7" x1="522" y1="27.68" x2="407.92" y2="27.68"/>
			</g>
		</g>
		<path id="패스_71" class="st8" d="M2636.68,4230.26c-2.17-21.74-11.77-41.12,44.61-38.99c5.34,0.2,9.69,6.85-0.04,8.81
			c-30.32,6.1-29.09,9.29-35.89,33.75C2643.45,4240.71,2637.11,4234.56,2636.68,4230.26z"/>
	</g>
</g>
</svg>
