<?xml version="1.0" encoding="utf-8"?>
<!-- Generator: Adobe Illustrator 25.0.1, SVG Export Plug-In . SVG Version: 6.00 Build 0)  -->
<svg version="1.1" id="레이어_1" xmlns="http://www.w3.org/2000/svg" xmlns:xlink="http://www.w3.org/1999/xlink" x="0px"
	 y="0px" viewBox="0 0 64 64" style="enable-background:new 0 0 64 64;" xml:space="preserve">
<style type="text/css">
	.st0{fill:url(#SVGID_1_);}
	.st1{fill:#FFFFFF;}
</style>
<linearGradient id="SVGID_1_" gradientUnits="userSpaceOnUse" x1="9.3726" y1="9.3726" x2="54.6846" y2="54.6846">
	<stop  offset="0" style="stop-color:#FF7800"/>
	<stop  offset="1" style="stop-color:#E60417"/>
</linearGradient>
<circle class="st0" cx="32" cy="32" r="32"/>
<path class="st1" d="M42.7,39.7L35,32l7.7-7.7c0.8-0.8,0.8-2.2,0-3c-0.8-0.8-2.2-0.8-3,0L32,29l-7.7-7.7c-0.8-0.8-2.2-0.8-3,0
	c-0.8,0.8-0.8,2.2,0,3L29,32l-7.7,7.7c-0.8,0.8-0.8,2.2,0,3c0.8,0.8,2.2,0.8,3,0L32,35l7.7,7.7c0.8,0.8,2.2,0.8,3,0
	C43.5,41.9,43.5,40.5,42.7,39.7z"/>
</svg>
