<?xml version="1.0" encoding="utf-8"?>
<!-- Generator: Adobe Illustrator 25.0.1, SVG Export Plug-In . SVG Version: 6.00 Build 0)  -->
<svg version="1.1" id="레이어_1" xmlns="http://www.w3.org/2000/svg" xmlns:xlink="http://www.w3.org/1999/xlink" x="0px"
	 y="0px" viewBox="0 0 31 31" style="enable-background:new 0 0 31 31;" xml:space="preserve">
<style type="text/css">
	.st0{fill:#E60417;}
</style>
<g>
	<g>
		<path class="st0" d="M29.5,3h-28C0.7,3,0,2.3,0,1.5v0C0,0.7,0.7,0,1.5,0l28,0C30.3,0,31,0.7,31,1.5v0C31,2.3,30.3,3,29.5,3z"/>
	</g>
	<g>
		<path class="st0" d="M29.5,17H10.8c-0.8,0-1.5-0.7-1.5-1.5v0c0-0.8,0.7-1.5,1.5-1.5h18.7c0.8,0,1.5,0.7,1.5,1.5v0
			C31,16.3,30.3,17,29.5,17z"/>
	</g>
	<g>
		<path class="st0" d="M29.5,31h-28C0.7,31,0,30.3,0,29.5v0C0,28.7,0.7,28,1.5,28h28c0.8,0,1.5,0.7,1.5,1.5v0
			C31,30.3,30.3,31,29.5,31z"/>
	</g>
</g>
</svg>
