<?xml version="1.0" encoding="utf-8"?>
<!-- Generator: Adobe Illustrator 25.0.1, SVG Export Plug-In . SVG Version: 6.00 Build 0)  -->
<svg version="1.1" id="Layer_1" xmlns="http://www.w3.org/2000/svg" xmlns:xlink="http://www.w3.org/1999/xlink" x="0px" y="0px"
	 viewBox="0 0 70 70" style="enable-background:new 0 0 70 70;" xml:space="preserve">
<style type="text/css">
	.st0{fill:url(#SVGID_1_);}
	.st1{fill:#FFFFFF;}
</style>
<linearGradient id="SVGID_1_" gradientUnits="userSpaceOnUse" x1="5.4345" y1="-1180.9178" x2="54.9646" y2="-1230.4479" gradientTransform="matrix(1 0 0 -1 4.8003 -1170.6797)">
	<stop  offset="0" style="stop-color:#FF7800"/>
	<stop  offset="1" style="stop-color:#E60417"/>
</linearGradient>
<path class="st0" d="M35,0C15.6,0,0,15.6,0,35c0,19.4,15.6,35,35,35s35-15.6,35-35C70,15.6,54.4,0,35,0z"/>
<path class="st1" d="M52,34L40.9,22.8c-0.7-0.7-1.7-0.7-2.4,0c-0.7,0.7-0.7,1.7,0,2.4l8.1,8.1H19.1c-0.9,0-1.6,0.7-1.6,1.6
	c0,0.9,0.7,1.6,1.6,1.6h27.5l-8.1,8.1c-0.7,0.7-0.7,1.7,0,2.4c0.3,0.3,0.7,0.5,1.2,0.5c0.3,0,0.9-0.2,1.4-0.3l11-11
	c0.3-0.3,0.5-0.7,0.5-1.2C52.5,34.7,52.3,34.3,52,34z"/>
</svg>
