<?xml version="1.0" encoding="utf-8"?>
<!-- Generator: Adobe Illustrator 16.0.0, SVG Export Plug-In . SVG Version: 6.00 Build 0)  -->
<!DOCTYPE svg PUBLIC "-//W3C//DTD SVG 1.1//EN" "http://www.w3.org/Graphics/SVG/1.1/DTD/svg11.dtd">
<svg version="1.1" id="Layer_1" xmlns="http://www.w3.org/2000/svg" xmlns:xlink="http://www.w3.org/1999/xlink" x="0px" y="0px"
	 width="100px" height="100px" viewBox="0 0 100 100" enable-background="new 0 0 100 100" xml:space="preserve">
<linearGradient id="SVGID_1_" gradientUnits="userSpaceOnUse" x1="9.8218" y1="1255.3057" x2="80.5788" y2="1326.0626" gradientTransform="matrix(1 0 0 1 4.8003 -1240.6797)">
	<stop  offset="0" style="stop-color:#FF7800"/>
	<stop  offset="1" style="stop-color:#E60417"/>
</linearGradient>
<path fill="url(#SVGID_1_)" d="M50,0C22.342,0,0,22.317,0,50c0,27.682,22.318,50,50,50c27.682,0,50-22.318,50-50
	C100,22.317,77.656,0,50,0z"/>
<path fill="#FFFFFF" d="M74.282,48.546L58.364,32.628c-0.957-0.956-2.41-0.956-3.386,0c-0.956,0.957-0.956,2.411,0,3.387
	L66.61,47.647H27.352C26.053,47.647,25,48.701,25,50c0,1.3,1.053,2.353,2.353,2.353H66.61L54.979,63.985
	c-0.956,0.957-0.956,2.41,0,3.386c0.479,0.479,0.957,0.717,1.693,0.717c0.479,0,1.215-0.238,1.932-0.478l15.679-15.679
	C74.761,51.453,75,50.976,75,50.24C75,49.521,74.761,49.025,74.282,48.546z"/>
</svg>
