<?xml version="1.0" encoding="utf-8"?>
<!-- Generator: Adobe Illustrator 25.0.1, SVG Export Plug-In . SVG Version: 6.00 Build 0)  -->
<svg version="1.1" id="Capa_1" xmlns="http://www.w3.org/2000/svg" xmlns:xlink="http://www.w3.org/1999/xlink" x="0px" y="0px"
	 viewBox="0 0 70 70" style="enable-background:new 0 0 70 70;" xml:space="preserve">
<style type="text/css">
	.st0{fill:url(#SVGID_1_);}
	.st1{fill:#FFFFFF;}
</style>
<g>
	
		<linearGradient id="SVGID_1_" gradientUnits="userSpaceOnUse" x1="10.2351" y1="59.7615" x2="59.7648" y2="10.2318" gradientTransform="matrix(1 0 0 -1 0 70)">
		<stop  offset="0" style="stop-color:#FF7800"/>
		<stop  offset="1" style="stop-color:#E60417"/>
	</linearGradient>
	<path class="st0" d="M35,0C15.6,0,0,15.6,0,35s15.6,35,35,35s35-15.6,35-35S54.4,0,35,0z"/>
	<path class="st1" d="M46.5,33.6L32,23.1c-0.5-0.4-1.2-0.4-1.8-0.1c-0.6,0.3-1,0.9-1,1.6v21.1c0,0.7,0.4,1.3,1,1.6
		c0.2,0.1,0.5,0.2,0.8,0.2c0.4,0,0.7-0.1,1-0.3l14.5-10.6c0.5-0.3,0.7-0.9,0.7-1.4C47.3,34.5,47,34,46.5,33.6z"/>
</g>
</svg>
