<?xml version="1.0" encoding="utf-8"?>
<!-- Generator: Adobe Illustrator 25.0.1, SVG Export Plug-In . SVG Version: 6.00 Build 0)  -->
<svg version="1.1" id="Capa_1" xmlns="http://www.w3.org/2000/svg" xmlns:xlink="http://www.w3.org/1999/xlink" x="0px" y="0px"
	 viewBox="0 0 70 70" style="enable-background:new 0 0 70 70;" xml:space="preserve">
<style type="text/css">
	.st0{fill:url(#SVGID_1_);}
	.st1{fill:url(#SVGID_2_);}
</style>
<linearGradient id="SVGID_1_" gradientUnits="userSpaceOnUse" x1="520.6501" y1="-698.2109" x2="535.6766" y2="-713.2375" gradientTransform="matrix(1 0 0 -1 -495.1992 -670.6797)">
	<stop  offset="0" style="stop-color:#FF7800"/>
	<stop  offset="1" style="stop-color:#E60417"/>
</linearGradient>
<path class="st0" d="M46.5,33.6L32,23.1c-0.5-0.4-1.2-0.4-1.8-0.1c-0.6,0.3-1,0.9-1,1.6v21.1c0,0.7,0.4,1.3,1,1.6
	c0.2,0.1,0.5,0.2,0.8,0.2c0.4,0,0.7-0.1,1-0.3l14.5-10.6c0.5-0.3,0.7-0.9,0.7-1.4C47.3,34.5,47,34,46.5,33.6z"/>
<g>
	<g>
		
			<linearGradient id="SVGID_2_" gradientUnits="userSpaceOnUse" x1="753.0339" y1="1064.7579" x2="802.5637" y2="1114.2877" gradientTransform="matrix(1 0 0 1 -742.7988 -1054.5195)">
			<stop  offset="0" style="stop-color:#FF7800"/>
			<stop  offset="1" style="stop-color:#E60417"/>
		</linearGradient>
		<path class="st1" d="M35,0C15.6,0,0,15.6,0,35s15.6,35,35,35s35-15.6,35-35S54.4,0,35,0z M35,65.3C18.2,65.3,4.7,51.8,4.7,35
			S18.2,4.7,35,4.7S65.3,18.2,65.3,35S51.8,65.3,35,65.3z"/>
	</g>
</g>
</svg>
