<?xml version="1.0" encoding="utf-8"?>
<!-- Generator: Adobe Illustrator 16.0.0, SVG Export Plug-In . SVG Version: 6.00 Build 0)  -->
<!DOCTYPE svg PUBLIC "-//W3C//DTD SVG 1.1//EN" "http://www.w3.org/Graphics/SVG/1.1/DTD/svg11.dtd">
<svg version="1.1" id="Capa_1" xmlns="http://www.w3.org/2000/svg" xmlns:xlink="http://www.w3.org/1999/xlink" x="0px" y="0px"
	 width="100px" height="100px" viewBox="0 0 100 100" enable-background="new 0 0 100 100" xml:space="preserve">
<g>
	<linearGradient id="SVGID_1_" gradientUnits="userSpaceOnUse" x1="14.6221" y1="14.627" x2="85.379" y2="85.3839">
		<stop  offset="0" style="stop-color:#FF7800"/>
		<stop  offset="1" style="stop-color:#E60417"/>
	</linearGradient>
	<path fill="url(#SVGID_1_)" d="M50,0C22.343,0,0,22.318,0,50c0,27.682,22.318,50,50,50s50-22.318,50-50C100,22.318,77.656,0,50,0z"
		/>
	<path fill="#FFFFFF" d="M66.494,48.045L45.729,32.951c-0.762-0.552-1.774-0.636-2.609-0.207c-0.842,0.426-1.368,1.292-1.368,2.227
		v30.179c0,0.944,0.526,1.807,1.368,2.233c0.356,0.18,0.745,0.27,1.138,0.27c0.512,0,1.031-0.164,1.471-0.486l20.765-15.081
		c0.655-0.483,1.037-1.228,1.037-2.02C67.535,49.26,67.143,48.518,66.494,48.045z"/>
</g>
</svg>
