<?xml version="1.0" encoding="utf-8"?>
<!-- Generator: Adobe Illustrator 16.0.0, SVG Export Plug-In . SVG Version: 6.00 Build 0)  -->
<!DOCTYPE svg PUBLIC "-//W3C//DTD SVG 1.1//EN" "http://www.w3.org/Graphics/SVG/1.1/DTD/svg11.dtd">
<svg version="1.1" id="Capa_1" xmlns="http://www.w3.org/2000/svg" xmlns:xlink="http://www.w3.org/1999/xlink" x="0px" y="0px"
	 width="100px" height="100px" viewBox="0 0 100 100" enable-background="new 0 0 100 100" xml:space="preserve">
<linearGradient id="SVGID_1_" gradientUnits="userSpaceOnUse" x1="531.5596" y1="780.0117" x2="553.0255" y2="801.4777" gradientTransform="matrix(1 0 0 1 -495.1992 -740.6797)">
	<stop  offset="0" style="stop-color:#FF7800"/>
	<stop  offset="1" style="stop-color:#E60417"/>
</linearGradient>
<path fill="url(#SVGID_1_)" d="M66.494,48.045L45.729,32.951c-0.762-0.552-1.774-0.636-2.609-0.207
	c-0.842,0.426-1.368,1.292-1.368,2.227V65.15c0,0.942,0.526,1.807,1.368,2.231c0.356,0.181,0.745,0.271,1.138,0.271
	c0.512,0,1.031-0.163,1.471-0.485l20.765-15.081c0.654-0.482,1.037-1.229,1.037-2.02C67.535,49.26,67.143,48.518,66.494,48.045z"/>
<g>
	<g>
		
			<linearGradient id="SVGID_2_" gradientUnits="userSpaceOnUse" x1="757.4189" y1="-1025.1455" x2="828.176" y2="-1095.9027" gradientTransform="matrix(1 0 0 -1 -742.7988 -1010.5195)">
			<stop  offset="0" style="stop-color:#FF7800"/>
			<stop  offset="1" style="stop-color:#E60417"/>
		</linearGradient>
		<path fill="url(#SVGID_2_)" d="M50,0C22.343,0,0,22.318,0,50c0,27.682,22.318,50,50,50c27.682,0,50-22.318,50-50
			C100,22.318,77.656,0,50,0z M50,93.314C26.003,93.314,6.686,73.996,6.686,50S26.004,6.685,50,6.685S93.314,26.004,93.314,50
			S73.996,93.314,50,93.314z"/>
	</g>
</g>
</svg>
