<?xml version="1.0" encoding="utf-8"?>
<!-- Generator: Adobe Illustrator 16.0.0, SVG Export Plug-In . SVG Version: 6.00 Build 0)  -->
<!DOCTYPE svg PUBLIC "-//W3C//DTD SVG 1.1//EN" "http://www.w3.org/Graphics/SVG/1.1/DTD/svg11.dtd">
<svg version="1.1" id="Layer_1" xmlns="http://www.w3.org/2000/svg" xmlns:xlink="http://www.w3.org/1999/xlink" x="0px" y="0px"
	 width="100px" height="100px" viewBox="0 0 100 100" enable-background="new 0 0 100 100" xml:space="preserve">
<g>
	<g>
		
			<linearGradient id="SVGID_1_" gradientUnits="userSpaceOnUse" x1="-661.2217" y1="885.4561" x2="-731.9785" y2="956.2129" gradientTransform="matrix(-1 0 0 1 -646.5996 -870.8398)">
			<stop  offset="0" style="stop-color:#FF7800"/>
			<stop  offset="1" style="stop-color:#E60417"/>
		</linearGradient>
		<path fill="url(#SVGID_1_)" d="M50,100c27.657,0,50-22.318,50-50c0-27.682-22.318-50-50-50C22.318,0,0,22.318,0,50
			C0,77.682,22.344,100,50,100z M50,6.686c23.997,0,43.315,19.318,43.315,43.315c0,23.996-19.318,43.313-43.315,43.313
			C26.004,93.314,6.686,73.996,6.686,50S26.004,6.686,50,6.686z"/>
	</g>
</g>
<linearGradient id="SVGID_2_" gradientUnits="userSpaceOnUse" x1="-671.6006" y1="920.8408" x2="-721.6006" y2="920.8408" gradientTransform="matrix(-1 0 0 1 -646.5996 -870.8398)">
	<stop  offset="0" style="stop-color:#FF7800"/>
	<stop  offset="1" style="stop-color:#E60417"/>
</linearGradient>
<path fill="url(#SVGID_2_)" d="M25.717,51.453l15.917,15.918c0.957,0.956,2.411,0.956,3.387,0c0.956-0.957,0.956-2.41,0-3.386
	L33.389,52.353h39.259C73.947,52.353,75,51.299,75,50c0-1.299-1.053-2.353-2.352-2.353H33.389l11.632-11.632
	c0.956-0.957,0.956-2.411,0-3.386c-0.479-0.478-0.958-0.717-1.694-0.717c-0.478,0-1.215,0.239-1.932,0.478L25.717,48.068
	C25.239,48.546,25,49.024,25,49.76C25,50.478,25.239,50.976,25.717,51.453z"/>
</svg>
