<?xml version="1.0" encoding="utf-8"?>
<!-- Generator: Adobe Illustrator 25.0.1, SVG Export Plug-In . SVG Version: 6.00 Build 0)  -->
<svg version="1.1" id="Layer_1" xmlns="http://www.w3.org/2000/svg" xmlns:xlink="http://www.w3.org/1999/xlink" x="0px" y="0px"
	 viewBox="0 0 70 70" style="enable-background:new 0 0 70 70;" xml:space="preserve">
<style type="text/css">
	.st0{fill:url(#SVGID_1_);}
	.st1{fill:url(#SVGID_2_);}
</style>
<g>
	<g>
		
			<linearGradient id="SVGID_1_" gradientUnits="userSpaceOnUse" x1="-630.8348" y1="-811.0716" x2="-680.3646" y2="-860.6013" gradientTransform="matrix(-1 0 0 -1 -620.5996 -800.8398)">
			<stop  offset="0" style="stop-color:#FF7800"/>
			<stop  offset="1" style="stop-color:#E60417"/>
		</linearGradient>
		<path class="st0" d="M35,70c19.4,0,35-15.6,35-35S54.4,0,35,0S0,15.6,0,35S15.6,70,35,70z M35,4.7c16.8,0,30.3,13.5,30.3,30.3
			c0,16.8-13.5,30.3-30.3,30.3C18.2,65.3,4.7,51.8,4.7,35S18.2,4.7,35,4.7z"/>
	</g>
</g>
<linearGradient id="SVGID_2_" gradientUnits="userSpaceOnUse" x1="-638.0996" y1="-835.8398" x2="-673.0996" y2="-835.8398" gradientTransform="matrix(-1 0 0 -1 -620.5996 -800.8398)">
	<stop  offset="0" style="stop-color:#FF7800"/>
	<stop  offset="1" style="stop-color:#E60417"/>
</linearGradient>
<path class="st1" d="M18,36l11.1,11.1c0.7,0.7,1.7,0.7,2.4,0c0.7-0.7,0.7-1.7,0-2.4l-8.1-8.1h27.5c0.9,0,1.6-0.7,1.6-1.6
	s-0.7-1.6-1.6-1.6H23.4l8.1-8.1c0.7-0.7,0.7-1.7,0-2.4c-0.3-0.3-0.7-0.5-1.2-0.5c-0.3,0-0.9,0.2-1.4,0.3l-11,11
	c-0.3,0.3-0.5,0.7-0.5,1.2C17.5,35.3,17.7,35.7,18,36z"/>
</svg>
