<?xml version="1.0" encoding="utf-8"?>
<!-- Generator: Adobe Illustrator 16.0.0, SVG Export Plug-In . SVG Version: 6.00 Build 0)  -->
<!DOCTYPE svg PUBLIC "-//W3C//DTD SVG 1.1//EN" "http://www.w3.org/Graphics/SVG/1.1/DTD/svg11.dtd">
<svg version="1.1" id="Layer_1" xmlns:svgjs="http://svgjs.com/svgjs"
	 xmlns="http://www.w3.org/2000/svg" xmlns:xlink="http://www.w3.org/1999/xlink" x="0px" y="0px" width="200px" height="200px"
	 viewBox="156 156 200 200" enable-background="new 156 156 200 200" xml:space="preserve">
<linearGradient id="SVGID_1_" gradientUnits="userSpaceOnUse" x1="680.4426" y1="513.9316" x2="821.9573" y2="655.4461" gradientTransform="matrix(1 0 0 1 -495.1992 -328.6797)">
	<stop  offset="0" style="stop-color:#FF7800"/>
	<stop  offset="1" style="stop-color:#E60417"/>
</linearGradient>
<path fill="url(#SVGID_1_)" d="M256,156c-55.316,0-100,44.635-100,100c0,55.363,44.637,100,100,100s100-44.637,100-100
	C356,200.635,311.313,156,256,156z"/>
<g>
	<g id="Q">
		<path fill="#FFFFFF" d="M201.296,251.132c0,35.414,19.735,56.555,52.792,56.555c7.676,0,14.843-1.313,21.338-3.909
			c7.986,5.582,13.443,10.218,21.75,12.761l2.9,0.888l10.629-21.359c-2.334-0.96-8.467-2.615-16.031-7.491
			c7.524-10.269,10.775-21.707,10.775-37.443c0-34.886-19.89-56.558-51.906-56.558C221.316,194.574,201.296,216.247,201.296,251.132
			L201.296,251.132z M243.614,281.029c3.598,1.318,4.209,1.51,5.55,2.062c-12.678-1.786-19.859-13.21-19.859-31.959
			c0-20.455,8.559-31.72,24.101-31.72c15.5,0,24.034,11.264,24.034,31.72c0,8.931-1.672,16.152-4.98,21.525
			c-10.367-7.23-18.236-9.122-20.09-9.894L243.614,281.029z"/>
	</g>
</g>
</svg>
