<?xml version="1.0" encoding="utf-8"?>
<!-- Generator: Adobe Illustrator 25.0.1, SVG Export Plug-In . SVG Version: 6.00 Build 0)  -->
<svg version="1.1" id="Layer_1" xmlns:svgjs="http://svgjs.com/svgjs"
	 xmlns="http://www.w3.org/2000/svg" xmlns:xlink="http://www.w3.org/1999/xlink" x="0px" y="0px" viewBox="0 0 40 40"
	 style="enable-background:new 0 0 40 40;" xml:space="preserve">
<style type="text/css">
	.st0{fill:url(#SVGID_1_);}
	.st1{fill:#FFFFFF;}
</style>
<linearGradient id="SVGID_1_" gradientUnits="userSpaceOnUse" x1="501.0477" y1="-294.5301" x2="529.3505" y2="-322.8328" gradientTransform="matrix(1 0 0 -1 -495.1992 -288.6797)">
	<stop  offset="0" style="stop-color:#FF7800"/>
	<stop  offset="1" style="stop-color:#E60417"/>
</linearGradient>
<path class="st0" d="M20,0C8.9,0,0,8.9,0,20c0,11.1,8.9,20,20,20s20-8.9,20-20C40,8.9,31.1,0,20,0z"/>
<g>
	<g id="Q">
		<path class="st1" d="M9.1,19c0,7.1,3.9,11.3,10.6,11.3c1.5,0,3-0.3,4.3-0.8c1.6,1.1,2.7,2,4.4,2.6l0.6,0.2l2.1-4.3
			c-0.5-0.2-1.7-0.5-3.2-1.5c1.5-2.1,2.2-4.3,2.2-7.5c0-7-4-11.3-10.4-11.3C13.1,7.7,9.1,12,9.1,19L9.1,19z M17.5,25
			c0.7,0.3,0.8,0.3,1.1,0.4c-2.5-0.4-4-2.6-4-6.4c0-4.1,1.7-6.3,4.8-6.3c3.1,0,4.8,2.3,4.8,6.3c0,1.8-0.3,3.2-1,4.3
			c-2.1-1.4-3.6-1.8-4-2L17.5,25z"/>
	</g>
</g>
</svg>
