<svg id="레이어_1" data-name="레이어 1" xmlns="http://www.w3.org/2000/svg" viewBox="0 0 44 44"><defs><style>.cls-1{fill:#2fb14a;}.cls-2{fill:#fff;}</style></defs><circle class="cls-1" cx="22" cy="22" r="22"/><path class="cls-2" d="M11.63,18.33a3,3,0,0,0-2,.91V15.61H7.4v9.52H9.71v-.75a2.18,2.18,0,0,0,1.92,1,3.37,3.37,0,0,0,3.22-3.56s-.12-3.48-3.22-3.48m-.51,5a1.47,1.47,0,0,1,0-2.93,1.47,1.47,0,1,1,0,2.93"/><path class="cls-2" d="M15.58,15.39V17.6s1-.05,1,1.9v5.63h2.21V19s.09-3.58-3.25-3.58"/><path class="cls-2" d="M24.21,18.36s-3.78,0-3.78,3.53a3.42,3.42,0,0,0,3.78,3.48s3.86,0,3.86-3.48c0,0,.13-3.53-3.86-3.53m0,5a1.47,1.47,0,1,1,1.47-1.46,1.46,1.46,0,0,1-1.47,1.46"/><path class="cls-2" d="M34.38,18.59v.65a2.5,2.5,0,0,0-1.92-.88,3.15,3.15,0,0,0-3.23,3.5s0,3.39,3.14,3.39a2.63,2.63,0,0,0,2-.87v.53s.16,1.68-1.46,1.68h-.55v2h.89A3.32,3.32,0,0,0,36.6,25V18.59ZM33,23.35a1.47,1.47,0,1,1,1.47-1.46A1.46,1.46,0,0,1,33,23.35"/></svg>