<svg id="레이어_1" data-name="레이어 1" xmlns="http://www.w3.org/2000/svg" viewBox="0 0 44 44"><defs><style>.cls-1{fill:#fff;}.cls-2{fill:none;}.cls-3{fill:#41aa34;}</style></defs><rect class="cls-1" x="11.03" y="6.03" width="22" height="33"/><path class="cls-2" d="M31.74,6.88h-19V26h19ZM26.19,20H23.55l-2.73-3.67V20H18.18v-7.2h2.64l2.73,3.67V12.81h2.64Z" transform="translate(0.03 0.03)"/><polygon class="cls-2" points="31.3 27.86 13.29 27.86 17.12 32.48 27.44 32.48 31.3 27.86"/><path class="cls-2" d="M0,22c0,.52,0,1,.06,1.53V20.44Q0,21.21,0,22Z" transform="translate(0.03 0.03)"/><path class="cls-2" d="M20.44,43.91Q21.21,44,22,44c.52,0,1,0,1.53-.06Z" transform="translate(0.03 0.03)"/><polygon class="cls-2" points="25.92 34.18 18.61 34.18 22.3 38.54 25.92 34.18"/><path class="cls-2" d="M44,22q0-.76-.06-1.53V23.5C44,23,44,22.49,44,22Z" transform="translate(0.03 0.03)"/><path class="cls-2" d="M22,0q-.76,0-1.53.06H23.5C23,0,22.49,0,22,0Z" transform="translate(0.03 0.03)"/><path class="cls-3" d="M43.91,23.5V20.44A22,22,0,0,0,23.5,0H20.44A22,22,0,0,0,0,20.44V23.5A22,22,0,0,0,20.44,43.91H23.5A22,22,0,0,0,43.91,23.5ZM12.7,6.88h19V26h-19Zm.56,21h18l-3.87,4.62H17.09Zm12.63,6.32-3.62,4.36-3.69-4.36Z" transform="translate(0.03 0.03)"/><polygon class="cls-3" points="23.58 16.5 20.85 12.84 18.21 12.84 18.21 20.04 20.85 20.04 20.85 16.37 23.58 20.04 26.21 20.04 26.21 12.84 23.58 12.84 23.58 16.5"/></svg>