<?xml version="1.0" encoding="utf-8"?>
<!-- Generator: Adobe Illustrator 16.0.0, SVG Export Plug-In . SVG Version: 6.00 Build 0)  -->
<!DOCTYPE svg PUBLIC "-//W3C//DTD SVG 1.1//EN" "http://www.w3.org/Graphics/SVG/1.1/DTD/svg11.dtd">
<svg version="1.1" id="Layer_1" xmlns="http://www.w3.org/2000/svg" xmlns:xlink="http://www.w3.org/1999/xlink" x="0px" y="0px"
	 width="512px" height="512px" viewBox="0 0 512 512" enable-background="new 0 0 512 512" xml:space="preserve">
<g>
	<path d="M305,256c0,27.063-21.938,49-49,49c-27.063,0-49-21.938-49-49s21.938-49,49-49C283.063,207,305,228.938,305,256z"/>
	<path d="M370.596,169.303c-2.355-6.383-6.113-12.16-10.996-16.902c-4.742-4.883-10.516-8.641-16.902-10.996
		c-5.18-2.012-12.961-4.406-27.293-5.059c-15.504-0.707-20.152-0.859-59.403-0.859c-39.254,0-43.902,0.148-59.402,0.855
		c-14.332,0.656-22.117,3.051-27.293,5.063c-6.387,2.355-12.164,6.113-16.902,10.996c-4.883,4.742-8.641,10.516-11,16.902
		c-2.012,5.18-4.406,12.965-5.059,27.297c-0.707,15.5-0.859,20.148-0.859,59.402c0,39.25,0.152,43.898,0.859,59.402
		c0.652,14.332,3.047,22.113,5.059,27.293c2.359,6.387,6.113,12.16,10.996,16.902c4.742,4.883,10.516,8.641,16.902,10.996
		c5.18,2.016,12.965,4.41,27.297,5.063c15.5,0.707,20.145,0.855,59.398,0.855c39.258,0,43.907-0.148,59.403-0.855
		c14.332-0.652,22.117-3.047,27.297-5.063c12.82-4.945,22.953-15.078,27.898-27.898c2.012-5.18,4.406-12.961,5.063-27.293
		c0.707-15.504,0.855-20.152,0.855-59.402c0-39.254-0.148-43.902-0.855-59.402C375.006,182.268,372.612,174.482,370.596,169.303z
		 M256.002,331.482c-41.691,0-75.488-33.793-75.488-75.484s33.797-75.484,75.488-75.484c41.688,0,75.485,33.793,75.485,75.484
		S297.69,331.482,256.002,331.482z M334.471,195.17c-9.742,0-17.641-7.898-17.641-17.641s7.898-17.641,17.641-17.641
		s17.641,7.898,17.641,17.641C352.108,187.271,344.213,195.17,334.471,195.17z"/>
	<linearGradient id="SVGID_1_" gradientUnits="userSpaceOnUse" x1="74.989" y1="437.0117" x2="437.0119" y2="74.9888">
		<stop  offset="0" style="stop-color:#FFD600"/>
		<stop  offset="0.5" style="stop-color:#FF0100"/>
		<stop  offset="1" style="stop-color:#D800B9"/>
	</linearGradient>
	<path fill="url(#SVGID_1_)" d="M256,0C114.636,0,0,114.637,0,256s114.637,256,256,256c141.364,0,256-114.637,256-256
		S397.364,0,256,0z"/>
	<g>
		<path fill="#FFFFFF" d="M404.471,194.417c-0.729-15.899-3.254-26.757-6.945-36.257c-3.75-9.967-9.631-18.994-17.229-26.456
			c-7.461-7.6-16.49-13.481-26.457-17.233c-9.502-3.69-20.357-6.213-36.258-6.936c-15.93-0.729-21.018-0.903-61.583-0.903
			c-40.563,0-45.653,0.174-61.583,0.898c-15.9,0.728-26.756,3.252-36.258,6.945c-9.966,3.75-18.994,9.628-26.456,17.229
			c-7.599,7.459-13.481,16.488-17.233,26.453c-3.689,9.502-6.213,20.36-6.936,36.258c-0.729,15.932-0.902,21.019-0.902,61.584
			c0,40.567,0.174,45.657,0.902,61.587c0.725,15.896,3.25,26.756,6.943,36.256c3.749,9.965,9.628,18.994,17.229,26.455
			c7.459,7.598,16.488,13.479,26.455,17.227c9.5,3.695,20.358,6.219,36.258,6.945c15.932,0.729,21.02,0.898,61.584,0.898
			c40.565,0,45.655-0.17,61.584-0.898c15.9-0.727,26.754-3.25,36.256-6.945c20.064-7.756,35.926-23.617,43.684-43.682
			c3.695-9.5,6.217-20.359,6.945-36.256c0.725-15.932,0.898-21.02,0.898-61.584C405.369,215.434,405.196,210.347,404.471,194.417z
			 M377.582,316.359c-0.664,14.564-3.098,22.475-5.141,27.736c-5.027,13.029-15.322,23.324-28.35,28.35
			c-5.262,2.043-13.172,4.479-27.734,5.143c-15.748,0.719-20.473,0.869-60.359,0.869c-39.888,0-44.609-0.15-60.358-0.869
			c-14.563-0.664-22.471-3.1-27.736-5.143c-6.486-2.396-12.355-6.213-17.173-11.176c-4.962-4.818-8.78-10.684-11.175-17.174
			c-2.045-5.262-4.479-13.172-5.143-27.736c-0.719-15.748-0.871-20.473-0.871-60.355c0-39.886,0.152-44.609,0.871-60.361
			c0.666-14.564,3.098-22.472,5.143-27.735c2.395-6.488,6.215-12.357,11.175-17.175c4.817-4.962,10.687-8.78,17.175-11.173
			c5.264-2.047,13.172-4.478,27.735-5.144c15.751-0.719,20.475-0.872,60.357-0.872h-0.002c39.884,0,44.609,0.153,60.361,0.873
			c14.563,0.665,22.469,3.098,27.734,5.143c6.486,2.395,12.355,6.213,17.174,11.173c4.961,4.817,8.779,10.687,11.172,17.175
			c2.047,5.263,4.48,13.171,5.145,27.735c0.719,15.75,0.871,20.475,0.871,60.359C378.453,295.887,378.303,300.609,377.582,316.359z"
			/>
		<path fill="#FFFFFF" d="M255.997,179.297c-42.36,0-76.701,34.343-76.701,76.705c0,42.361,34.341,76.701,76.701,76.701
			c42.363,0,76.705-34.34,76.705-76.701C332.701,213.64,298.36,179.297,255.997,179.297z M255.997,305.791
			c-27.495-0.002-49.789-22.295-49.786-49.792c0-27.496,22.291-49.79,49.788-49.79c27.5,0.002,49.791,22.294,49.791,49.79
			C305.789,283.496,283.494,305.791,255.997,305.791z"/>
		<path fill="#FFFFFF" d="M353.656,176.268c0,9.898-8.025,17.924-17.924,17.924c-9.9,0-17.926-8.025-17.926-17.924
			c0-9.901,8.025-17.926,17.926-17.926C345.631,158.342,353.656,166.367,353.656,176.268z"/>
	</g>
</g>
</svg>
